<?xml version="1.0" encoding="utf-8"?>
<!-- Generator: Adobe Illustrator 17.1.0, SVG Export Plug-In . SVG Version: 6.00 Build 0)  -->
<!DOCTYPE svg PUBLIC "-//W3C//DTD SVG 1.1//EN" "http://www.w3.org/Graphics/SVG/1.1/DTD/svg11.dtd">
<svg version="1.1" id="Layer_1" xmlns="http://www.w3.org/2000/svg" xmlns:xlink="http://www.w3.org/1999/xlink" x="0px" y="0px"
	 viewBox="0 0 16 16" enable-background="new 0 0 16 16" xml:space="preserve">
<g>
	<g>
		<path fill="#0303EA" d="M5.5,14.1V3.8V3.7v-2H3.9c-1.8,1.9-4,2-4,2v0.1h2.5v10.3H0v0.1H8v-0.1H5.5z"/>
		<path fill="#0303EA" d="M13,7.7c-1.4,0.7-2.5,1.6-3,3.2c-0.3,1.1,0,2.1,0.8,2.8c0.9,0.7,2.2,0.8,2.9,0.1c0.8-0.8,1.4-2,0.4-3.1
			c-0.2-0.2-0.4-0.5-0.5-0.7C13.2,9.2,12.4,8.2,13,7.7"/>
		<path fill="#0303EA" d="M7.8,2.7v4.2c0,0,1.3-3.1,3.6-2.5s4.4-0.1,4.6-2.6c0,0-3.2,1.5-4.4,0.4S7.9,2.2,7.8,2.7z"/>
	</g>
</g>
</svg>
