<?xml version="1.0" encoding="utf-8"?>
<!-- Generator: Adobe Illustrator 17.1.0, SVG Export Plug-In . SVG Version: 6.00 Build 0)  -->
<!DOCTYPE svg PUBLIC "-//W3C//DTD SVG 1.1//EN" "http://www.w3.org/Graphics/SVG/1.1/DTD/svg11.dtd">
<svg version="1.1" id="Layer_1" xmlns="http://www.w3.org/2000/svg" xmlns:xlink="http://www.w3.org/1999/xlink" x="0px" y="0px"
	 viewBox="0 0 566.9 566.9" enable-background="new 0 0 566.9 566.9" xml:space="preserve">
<g>
	<g>
		<path fill="#0808C4" d="M174.7,682.3V67.1v-8.9V-59.9H81.1C-27.4,51.5-157.4,58.2-157.4,58.2v8.9H-8.8v615.2h-146.8v8.9h477v-8.9
			H174.7z"/>
		<path fill="#0808C4" d="M624.4,300.1c-82.4,40.1-149.2,98-177.5,190.2c-20,65-2.3,125.4,49.6,169.1c51.3,43.1,137,46.4,180.2,3.5
			c49.5-49,76.4-119.6,20.4-187.7c-11.4-13.9-22.2-28.4-32.6-43.1c-30.1-42.5-76.2-104.3-34.8-134.9"/>
		<path fill="#0808C4" d="M311.1-1.4v254c0,0,80.7-186.1,217.8-147.2s262.6-8.7,277-158.7c0,0-194.8,88-266.9,21.6
			S316.9-30.3,311.1-1.4z"/>
	</g>
</g>
</svg>
