<?xml version="1.0" encoding="utf-8"?>
<!-- Generator: Adobe Illustrator 17.1.0, SVG Export Plug-In . SVG Version: 6.00 Build 0)  -->
<!DOCTYPE svg PUBLIC "-//W3C//DTD SVG 1.1//EN" "http://www.w3.org/Graphics/SVG/1.1/DTD/svg11.dtd">
<svg version="1.1" id="Layer_1" xmlns="http://www.w3.org/2000/svg" xmlns:xlink="http://www.w3.org/1999/xlink" x="0px" y="0px"
	 viewBox="0 0 566.9 566.9" enable-background="new 0 0 566.9 566.9" xml:space="preserve">
<rect fill="#FFD2D2" width="566.9" height="566.9"/>
<g>
	<g>
		<path fill="#0808C4" d="M230.9,411.9V195.7v-3.1v-41.5H198c-38.1,39.2-83.8,41.5-83.8,41.5v3.1h52.2v216.2h-51.6v3.1h167.6v-3.1
			H230.9z"/>
		<path fill="#0808C4" d="M388.9,277.6c-29,14.1-52.4,34.4-62.4,66.8c-7,22.9-0.8,44.1,17.4,59.4c18,15.2,48.1,16.3,63.3,1.2
			c17.4-17.2,26.8-42,7.2-66c-4-4.9-7.8-10-11.4-15.2c-10.6-15-26.8-36.6-12.2-47.4"/>
		<path fill="#0808C4" d="M278.8,171.6v89.2c0,0,28.4-65.4,76.5-51.7s92.3-3,97.4-55.8c0,0-68.5,30.9-93.8,7.6
			S280.9,161.5,278.8,171.6z"/>
	</g>
</g>
</svg>
